<svg width="297" height="340" viewBox="0 0 297 340" fill="none" xmlns="http://www.w3.org/2000/svg">
<g clip-path="url(#clip0_48_172)">
<g opacity="0.5">
<path d="M156.334 331.055C155.904 331.485 155.904 332.182 156.334 332.611L163.338 339.616C163.768 340.046 164.464 340.046 164.894 339.616C165.324 339.186 165.324 338.489 164.894 338.06L158.668 331.833L164.894 325.607C165.324 325.177 165.324 324.481 164.894 324.051C164.464 323.621 163.768 323.621 163.338 324.051L156.334 331.055ZM292.31 251.501C265.786 298.784 215.179 330.733 157.112 330.733V332.934C216.007 332.934 267.332 300.527 294.23 252.577L292.31 251.501Z" fill="url(#paint0_linear_48_172)"/>
<path d="M293.124 100.939C293.709 101.105 294.317 100.765 294.483 100.18L297.185 90.6505C297.35 90.0655 297.011 89.4569 296.426 89.2912C295.841 89.1256 295.233 89.4651 295.066 90.0501L292.665 98.5209L284.195 96.12C283.61 95.9543 283.001 96.2938 282.835 96.8788C282.67 97.4638 283.009 98.0719 283.594 98.2381L293.124 100.939ZM157.112 20.9115C215.291 20.9115 265.981 52.9833 292.464 100.417L294.385 99.3436C267.53 51.242 216.12 18.7103 157.112 18.7103V20.9115Z" fill="url(#paint1_linear_48_172)"/>
<path d="M26.6467 91.6641C26.5161 91.0704 25.929 90.6951 25.3353 90.826L15.6613 92.9546C15.0676 93.085 14.6922 93.6722 14.8228 94.266C14.9535 94.8592 15.5406 95.2345 16.1343 95.1041L24.7334 93.2121L26.6254 101.811C26.756 102.405 27.3432 102.78 27.9368 102.65C28.5305 102.519 28.9058 101.932 28.7752 101.338L26.6467 91.6641ZM2.20122 175.822C2.20122 145.145 11.1173 116.553 26.4991 92.4934L24.6445 91.3081C9.04315 115.711 0 144.712 0 175.822H2.20122ZM30.158 264.615C12.5398 239.472 2.20122 208.856 2.20122 175.822H0C0 209.322 10.4862 240.377 28.3553 265.878L30.158 264.615Z" fill="url(#paint2_linear_48_172)"/>
</g>
</g>
<defs>
<linearGradient id="paint0_linear_48_172" x1="157.387" y1="331.833" x2="293.312" y2="252.039" gradientUnits="userSpaceOnUse">
<stop stop-color="white"/>
<stop offset="1" stop-opacity="0"/>
</linearGradient>
<linearGradient id="paint1_linear_48_172" x1="293.312" y1="100.155" x2="164.154" y2="19.5501" gradientUnits="userSpaceOnUse">
<stop stop-color="white"/>
<stop offset="1" stop-opacity="0"/>
</linearGradient>
<linearGradient id="paint2_linear_48_172" x1="-4.67758" y1="136.2" x2="29.1661" y2="265.247" gradientUnits="userSpaceOnUse">
<stop stop-color="white"/>
<stop offset="1" stop-opacity="0"/>
</linearGradient>
<clipPath id="clip0_48_172">
<rect width="297" height="340" fill="white"/>
</clipPath>
</defs>
</svg>
