<svg width="280" height="314" viewBox="0 0 280 314" fill="none" xmlns="http://www.w3.org/2000/svg">
<g opacity="0.5">
<path d="M2.78936 82.1319C2.95805 82.7146 3.56544 83.0501 4.14654 82.881L13.6152 80.1274C14.1958 79.9588 14.5304 79.3493 14.3617 78.7672C14.1936 78.1845 13.5856 77.8489 13.0051 78.0181L4.58854 80.4652L2.14746 72.0261C1.97932 71.4435 1.37135 71.1085 0.790244 71.2771C0.209134 71.4462 -0.12495 72.0552 0.0437418 72.6379L2.78936 82.1319ZM4.80105 82.3554C31.0304 34.5713 81.7277 2.19667 139.964 2.19667V0C80.8969 0 29.481 32.8389 2.88193 81.2966L4.80105 82.3554ZM139.964 2.19667C198.201 2.19667 248.896 34.5713 275.126 82.3554L277.048 81.2966C250.446 32.8389 199.031 0 139.964 0V2.19667Z" fill="url(#paint0_linear_44_381)"/>
<path d="M277.141 231.443C276.971 230.86 276.363 230.525 275.783 230.694L266.313 233.447C265.732 233.616 265.398 234.226 265.568 234.808C265.738 235.39 266.34 235.726 266.926 235.557L275.339 233.11L277.782 241.549C277.952 242.131 278.56 242.466 279.14 242.298C279.721 242.129 280.055 241.52 279.885 240.937L277.141 231.443ZM275.125 231.219C248.896 279.004 198.201 311.378 139.964 311.378V313.575C199.031 313.575 250.446 280.736 277.048 232.278L275.125 231.219ZM139.964 311.378C81.7276 311.378 31.0303 279.004 4.80096 231.219L2.88184 232.278C29.4809 280.736 80.8973 313.575 139.964 313.575V311.378Z" fill="url(#paint1_linear_44_381)"/>
</g>
<defs>
<linearGradient id="paint0_linear_44_381" x1="76.9786" y1="35.4213" x2="276.122" y2="81.5909" gradientUnits="userSpaceOnUse">
<stop stop-color="white"/>
<stop offset="1" stop-opacity="0"/>
</linearGradient>
<linearGradient id="paint1_linear_44_381" x1="276.068" y1="231.749" x2="3.86058" y2="231.749" gradientUnits="userSpaceOnUse">
<stop stop-color="white"/>
<stop offset="1" stop-opacity="0"/>
</linearGradient>
</defs>
</svg>
