<svg width="48" height="41" viewBox="0 0 48 41" fill="none" xmlns="http://www.w3.org/2000/svg">
<path d="M8.22386 21.8084L5.33036 24.6877C4.53181 25.4824 4.53181 26.7713 5.33036 27.5665C6.12945 28.3617 7.42476 28.3617 8.22386 27.5665L11.1168 24.6877C11.9165 23.8925 11.9165 22.6036 11.1168 21.8084C10.3183 21.0132 9.02295 21.0132 8.22386 21.8084Z" fill="#46B7F2"/>
<path d="M17.8673 31.4051L14.9743 34.2844C14.1752 35.0791 14.1752 36.368 14.9743 37.1632C15.7729 37.9584 17.0682 37.9584 17.8673 37.1632L20.7608 34.2844C21.5599 33.4892 21.5599 32.2003 20.7608 31.4051C19.9617 30.6099 18.6669 30.6099 17.8673 31.4051Z" fill="#46B7F2"/>
<path d="M24.6183 40.0419L25.5828 39.0825C26.3818 38.2873 26.3818 36.9984 25.5828 36.2032C24.7842 35.4086 23.4889 35.4086 22.6892 36.2032L21.7253 37.1632C20.9262 37.9584 20.9262 39.2473 21.7253 40.0419C22.5238 40.8371 23.8197 40.8371 24.6183 40.0419Z" fill="#46B7F2"/>
<path d="M14.975 24.6877L10.153 29.4858C9.35394 30.281 9.35394 31.5699 10.153 32.3645C10.9516 33.1597 12.2469 33.1597 13.046 32.3645L17.8679 27.5665C18.667 26.7713 18.667 25.4824 17.8679 24.6877C17.0688 23.8925 15.7741 23.8925 14.975 24.6877Z" fill="#46B7F2"/>
<path d="M18.3499 4.05494L14.8479 0.533142C14.315 0.00319438 13.4512 0.00319438 12.9189 0.533142L1.34597 12.0486C0.813061 12.5791 0.813061 13.438 1.34597 13.9685L3.71039 16.3574C4.45855 17.1026 5.02268 18.0104 5.35733 19.0099L5.81301 20.3691L6.29499 19.8891C8.15662 18.0379 11.1849 18.0379 13.0459 19.8891C13.6358 20.4762 14.017 21.1851 14.2334 21.9315C16.0304 21.0056 18.2918 21.2703 19.7969 22.7684C21.3025 24.266 21.5682 26.5165 20.6382 28.3051C21.3885 28.5198 22.1005 28.8988 22.6904 29.4858C23.6352 30.426 24.0952 31.6655 24.0805 32.9005C25.3221 32.8863 26.5676 33.3443 27.5124 34.2845C27.9867 34.7562 29.4413 36.2033 29.4413 36.2033C30.2404 36.9984 31.5358 36.9984 32.3343 36.2033C33.1334 35.4086 33.1334 34.1197 32.3343 33.3245L28.9588 29.9658C28.4265 29.4358 28.4265 28.5764 28.9588 28.0464C29.4917 27.5165 30.3555 27.5165 30.8878 28.0464L34.2633 31.4052C35.0624 32.2004 36.3577 32.2004 37.1568 31.4052C37.9553 30.6105 37.9553 29.3211 37.1568 28.5264L33.7808 25.1672C33.2484 24.6378 33.2484 23.7783 33.7808 23.2484C34.3137 22.7179 35.1774 22.7179 35.7098 23.2484L39.0858 26.6071C39.8843 27.4017 41.1797 27.4017 41.9788 26.6071C42.7778 25.8119 42.7778 24.523 41.9788 23.7284L33.6838 15.4738C31.0373 17.2152 27.4302 16.928 25.1014 14.6111C24.5696 14.0817 23.7047 14.0817 23.1729 14.6111C20.5138 17.257 16.1876 17.257 13.5285 14.6111C11.933 13.024 11.933 10.4407 13.5285 8.85359L18.3499 4.05494Z" fill="#46B7F2"/>
<path d="M35.5278 0.39746C34.9954 -0.132487 34.1317 -0.132487 33.5988 0.39746L30.7141 3.26796C30.208 3.77209 29.5206 4.0549 28.8048 4.0549H23.9023C22.8173 4.0549 21.7767 4.48439 21.0094 5.24773L15.4568 10.7729C14.9167 11.31 14.9167 12.1546 15.4568 12.6922C17.0577 14.2848 19.6423 14.2848 21.2432 12.6922C22.6859 11.2567 24.9468 11.1189 26.5461 12.2798C28.6969 13.8411 31.5657 13.9367 33.4482 12.0629L33.7806 11.7323L43.1649 21.0698C43.2947 20.5915 43.2975 20.0851 43.1704 19.6156C42.9497 18.8017 43.2695 17.6452 43.8687 17.0488L47.1007 13.8323C47.6336 13.3024 47.6336 12.4434 47.1007 11.9135L35.5278 0.39746Z" fill="#46B7F2"/>
</svg>
