<svg width="39" height="40" viewBox="0 0 39 40" fill="none" xmlns="http://www.w3.org/2000/svg">
<path d="M16.0252 12C7.23076 12 1.87382e-05 18.0641 1.87382e-05 25.5181C1.87382e-05 28.4977 1.15238 31.5259 3.26651 33.8729L0.281541 37.2931C0.137496 37.4582 0.0438365 37.6615 0.0120699 37.8785C-0.0196967 38.0956 0.0115185 38.3173 0.102437 38.5169C0.192807 38.7167 0.338495 38.8863 0.522522 39.0052C0.706549 39.1241 0.920704 39.1874 1.13924 39.1874H17.1644C23.6579 39.1874 32.0503 33.5808 32.0503 25.5181C32.0503 18.0641 24.8196 12 16.0252 12ZM9.11375 27.6119C7.85787 27.6119 6.83531 26.5867 6.83531 25.3273C6.83531 24.0679 7.85787 23.0427 9.11375 23.0427C10.3696 23.0427 11.3922 24.068 11.3922 25.3273C11.3922 26.5867 10.3702 27.6119 9.11375 27.6119ZM16.0252 27.6119C14.7693 27.6119 13.7467 26.5867 13.7467 25.3273C13.7467 24.0679 14.7693 23.0427 16.0252 23.0427C17.2811 23.0427 18.3036 24.068 18.3036 25.3273C18.3036 26.5867 17.2811 27.6119 16.0252 27.6119ZM22.9366 27.6119C21.6807 27.6119 20.6582 26.5867 20.6582 25.3273C20.6582 24.0679 21.6807 23.0427 22.9366 23.0427C24.1925 23.0427 25.215 24.068 25.215 25.3273C25.215 26.5867 24.1925 27.6119 22.9366 27.6119Z" fill="#46B7F2"/>
<path d="M38.6104 23.2444L35.9278 20.1064C37.8426 17.9401 38.8854 15.2984 38.8854 12.5654C38.8848 5.63682 32.2412 7.77885e-08 24.075 0C16.6909 -7.03424e-08 10.417 4.6142 9.30957 10.6199C11.37 9.91792 13.6802 9.51884 16.0244 9.51884C26.0007 9.51884 34.1971 16.5058 34.317 25.1308H37.7456C38.7189 25.1309 39.2414 23.9818 38.6104 23.2444Z" fill="#46B7F2"/>
</svg>
