<svg width="45" height="40" viewBox="0 0 45 40" fill="none" xmlns="http://www.w3.org/2000/svg">
<path d="M32.5742 14.1402C26.2827 14.1402 21.1655 18.8706 21.1655 24.6859C21.1655 30.5013 26.2827 35.2321 32.5742 35.2321C38.8651 35.2321 44.0672 30.5013 44.0672 24.6859C44.0672 18.8706 38.8651 14.1402 32.5742 14.1402ZM33.875 30.3332C33.864 30.3372 33.8526 30.3352 33.8416 30.3387V31.7169C33.8416 32.3644 33.2747 32.8885 32.5737 32.8885C31.8732 32.8885 31.3063 32.3644 31.3063 31.7169V30.3306C30.4716 30.0699 29.6714 29.5752 28.9873 28.8219C28.5371 28.3262 28.6061 27.587 29.1434 27.1713C29.6796 26.7552 30.482 26.8189 30.9289 27.3156C31.5999 28.0538 32.3584 28.347 33.0074 28.1318C33.5059 27.9632 33.8416 27.5207 33.8416 27.0296C33.8416 26.383 33.2731 25.858 32.5737 25.858C30.4771 25.858 28.771 24.2809 28.771 22.3423C28.771 20.9272 29.6823 19.6553 31.0921 19.104C31.1622 19.0766 31.2362 19.0782 31.3063 19.0549V17.6555C31.3063 17.0079 31.8731 16.4834 32.5742 16.4834C33.2747 16.4834 33.8416 17.0079 33.8416 17.6555V19.0574C34.4983 19.2619 35.138 19.588 35.7098 20.0999C36.2121 20.5495 36.2246 21.2907 35.7366 21.7565C35.2503 22.2213 34.4468 22.2314 33.9446 21.7818C33.3279 21.2289 32.646 21.0391 32.0813 21.2623C31.6108 21.4466 31.3063 21.8699 31.3063 22.3428C31.3063 22.9893 31.8743 23.5143 32.5737 23.5143C34.6708 23.5143 36.3769 25.0915 36.3769 27.0296C36.3769 28.5024 35.3719 29.8299 33.875 30.3332Z" fill="#46B7F2"/>
<path d="M2.06525 25.858C1.36474 25.858 0.797852 26.382 0.797852 27.0296V38.8258C0.797852 39.4734 1.36474 39.9974 2.06525 39.9974H5.86847V25.858H2.06525Z" fill="#46B7F2"/>
<path d="M30.8624 7.31386L21.989 0.282894C21.5158 -0.0942979 20.8131 -0.0942979 20.3399 0.282894L11.4665 7.31386C11.0629 7.63181 10.9183 8.14924 11.1023 8.60896C11.2858 9.06918 11.7601 9.37499 12.2908 9.37499H16.0941C16.0941 19.5055 16.0941 29.8664 16.0941 39.9974C19.3595 39.9974 21.6171 39.9974 24.9675 39.9974C25.668 39.9974 26.2348 39.4734 26.2348 38.8258V36.1526C21.7272 34.015 18.6294 29.6831 18.6294 24.6859C18.6294 19.6893 21.7272 15.3574 26.2348 13.2193V9.37499H30.0381C30.5688 9.37499 31.0431 9.06919 31.2266 8.60947C31.4112 8.14925 31.266 7.63181 30.8624 7.31386Z" fill="#46B7F2"/>
<path d="M9.75564 16.4834C9.05513 16.4834 8.48828 17.0079 8.48828 17.6555V39.9974C10.3401 39.9974 11.7608 39.9974 13.5589 39.9974V16.4834H9.75564Z" fill="#46B7F2"/>
</svg>
