<svg width="40" height="44" viewBox="0 0 40 44" fill="none" xmlns="http://www.w3.org/2000/svg">
<path d="M25.0508 16.501C25.2127 16.6797 25.415 16.8005 25.6426 16.8482C25.8651 16.896 26.0978 16.8684 26.3051 16.7684L37.5992 11.3915C37.7712 11.31 37.9229 11.183 38.0393 11.0218C38.1556 10.8606 38.2365 10.6701 38.2719 10.4668C38.3073 10.2634 38.2972 10.0533 38.2415 9.85551C38.1859 9.65776 38.0898 9.47743 37.9583 9.3308L35.5356 6.64259L39.5717 2.16168C39.9561 1.7319 40.0168 1.05775 39.7083 0.554942C39.4048 0.0628065 38.8181 -0.138887 38.3124 0.101001L27.0183 5.47742C26.8463 5.55944 26.6997 5.6864 26.5783 5.84764C26.4619 6.00888 26.386 6.19933 26.3506 6.4027C26.3152 6.60607 26.3254 6.81561 26.381 7.01393C26.4316 7.21168 26.5327 7.39203 26.6642 7.53866L29.0819 10.2269L25.0508 14.7078C24.6057 15.1971 24.5956 15.9982 25.0508 16.501ZM16.5942 2.59482L12.558 7.07574L19.0117 14.2448L23.0479 9.76394C23.493 9.269 23.493 8.46731 23.0479 7.9718L18.2076 2.59482C17.7625 2.09988 17.0393 2.09988 16.5942 2.59482ZM37.5689 25.8949C38.014 25.3994 38.014 24.5977 37.5689 24.1022L32.7286 18.7258C32.2835 18.2302 31.5602 18.2302 31.1151 18.7258L27.079 23.2061L33.5378 30.3752L37.5689 25.8949ZM26.2748 38.4409L31.9193 32.1679L25.4655 24.9982L19.821 31.2718C17.5956 33.7421 13.9742 33.7421 11.7538 31.2718C9.52838 28.801 9.52838 24.7808 11.7538 22.31L17.3983 16.037L10.9446 8.86787L5.30005 15.1409C-0.486083 21.5645 -0.486083 32.0173 5.30005 38.4409C11.0811 44.864 20.4937 44.864 26.2748 38.4409Z" fill="#46B7F2"/>
</svg>
